<svg fill="none" height="24" viewBox="0 0 25 24" width="25" xmlns="http://www.w3.org/2000/svg" xmlns:xlink="http://www.w3.org/1999/xlink"><clipPath id="a"><path d="m.405518 0h24v24h-24z"/></clipPath><g clip-path="url(#a)" stroke="#000" stroke-linecap="round" stroke-linejoin="round" stroke-width="1.5"><path d="m1.62427 9.625c0-.27614.22386-.5.5-.5h4.125c.27614 0 .5.22386.5.5v10.0625c0 .2761-.22386.5-.5.5h-4.125c-.27614 0-.5-.2239-.5-.5z"/><path d="m4.18677 6.125v3"/><path d="m4.18677 20.1875v3"/><path d="m9.84302 6.46875c0-.27614.22388-.5.49998-.5h4.125c.2761 0 .5.22386.5.5v4.84375c0 .2761-.2239.5-.5.5h-4.125c-.2761 0-.49998-.2239-.49998-.5z"/><path d="m12.4055 2.96875v3"/><path d="m12.4055 11.8125v3"/><path d="m18.0618 4.3125c0-.27614.2239-.5.5-.5h4.125c.2762 0 .5001.22386.5001.5v10.0625c0 .2761-.2239.5-.5.5h-4.125c-.2762 0-.5001-.2239-.5001-.5z"/><path d="m20.6243.8125v3"/><path d="m20.6243 14.875v3"/></g></svg>