<svg fill="none" height="24" viewBox="0 0 25 24" width="25" xmlns="http://www.w3.org/2000/svg" xmlns:xlink="http://www.w3.org/1999/xlink"><clipPath id="a"><path d="m.405518 0h24v24h-24z"/></clipPath><g clip-path="url(#a)" stroke="#000" stroke-linecap="round" stroke-linejoin="round" stroke-width="1.5"><path d="m19.1556 5.25h-2.033c-.3116.00022-.6134.10884-.8536.30723-.2403.1984-.404.4742-.4631.78011s-.01.62285.139.89648.3886.48688.6777.60318l2.064.825c.2897.11589.5299.3291.6794.60296s.1989.59126.1398.89764c-.0592.3063-.2233.5825-.4641.7809-.2407.1985-.5431.3069-.8551.3065h-2.031"/><path d="m17.6555 5.25v-.75"/><path d="m17.6555 12v-.75"/><path d="m11.6555 8.25c0 1.5913.6322 3.1174 1.7574 4.2426 1.1252 1.1253 2.6513 1.7574 4.2426 1.7574s3.1174-.6321 4.2427-1.7574c1.1252-1.1252 1.7573-2.6513 1.7573-4.2426s-.6321-3.11742-1.7573-4.24264c-1.1253-1.12522-2.6514-1.75736-4.2427-1.75736s-3.1174.63214-4.2426 1.75736-1.7574 2.65134-1.7574 4.24264z"/><path d="m2.28052 4.875c0 .34472.0679.68606.19981 1.00454.13192.31848.32528.60786.56903.85162.24376.24375.53313.43711.85161.56902.31848.13192.65983.19982 1.00455.19982s.68606-.0679 1.00454-.19982c.31848-.13191.60786-.32527.85161-.56902.24376-.24376.43711-.53314.56903-.85162s.19982-.65982.19982-1.00454-.0679-.68606-.19982-1.00454-.32527-.60786-.56903-.85162c-.24375-.24375-.53313-.43711-.85161-.56902-.31848-.13192-.65982-.19982-1.00454-.19982s-.68607.0679-1.00455.19982c-.31848.13191-.60785.32527-.85161.56902-.24375.24376-.43711.53314-.56903.85162-.13191.31848-.19981.65982-.19981 1.00454z"/><path d="m6.78052 17.25.375-3h1.5v-2.25c0-.9946-.39509-1.9484-1.09835-2.65165-.70326-.70326-1.65709-1.09835-2.65165-1.09835s-1.94839.39509-2.65165 1.09835c-.70326.70325-1.09835 1.65705-1.09835 2.65165v2.25h1.5l.375 3"/><path d="m1.15552 21.75 22.49998-5.25"/><path d="m15.4055 23.25h-5.99998l2.99998-3.75z"/></g></svg>