<svg fill="none" height="24" viewBox="0 0 25 24" width="25" xmlns="http://www.w3.org/2000/svg" xmlns:xlink="http://www.w3.org/1999/xlink"><clipPath id="a"><path d="m.405518 0h24v24h-24z"/></clipPath><g clip-path="url(#a)" stroke="#000" stroke-linecap="round" stroke-linejoin="round" stroke-width="1.5"><path d="m10.7485 10.785c.1686.2805.4083.5115.6949.6696.2866.158.6099.2375.9371.2304.4512.0269.8948-.1257 1.234-.4245.3393-.2987.5466-.7195.577-1.1705-.0316-.45013-.2395-.86961-.5786-1.16732s-.782-.4496-1.2324-.42268c-.4521.02658-.8964-.12673-1.2358-.42648-.3395-.29976-.5466-.72162-.5762-1.17352.0311-.45091.2388-.87135.5781-1.16999s.7827-.45137 1.2339-.42501c.3271-.0067.6502.07298.9368.23099.2865.15801.5263.38877.6952.66901"/><path d="m12.3805 11.687v1.063"/><path d="m12.3805 4.244v1.062"/><path d="m14.4486 1.745c.6094-.44458 1.3085-.750937 2.0485-.897713.7399-.146776 1.503-.130445 2.236.047857.733.178306 1.4183.514286 2.0082.984536.5899.47026 1.0701 1.06348 1.4073 1.73832.4867.97365.6548 2.07571.4805 3.15018s-.6821 2.06691-1.4515 2.83682l-8.772 9.145-8.76603-9.145c-.76976-.76972-1.27784-1.76211-1.45229-2.83662s-.00642-2.17666.48029-3.15038c.33492-.66959.81076-1.25878 1.39487-1.72712s1.26264-.80474 1.98903-.9861c.72638-.181358 1.48341-.203383 2.21911-.064563.7357.138821 1.43265.435203 2.04302.868783"/><path d="m12.3805 18.75v4.5"/><path d="m15.3802 23.148c.2089.2089.4921.3395.8333.3844.3413.0448.7339.0029 1.1555-.1232.4216-.1262.8639-.3341 1.3017-.612s.8625-.6202 1.2498-1.0075c.3873-.3874.7297-.812 1.0075-1.2498.2779-.4378.4859-.8801.612-1.3017s.168-.8143.1232-1.1555c-.0448-.3413-.1754-.6244-.3844-.8334-.2089-.2089-.4921-.3395-.8333-.3843-.3413-.0448-.7339-.003-1.1555.1232-.4216.1261-.8639.334-1.3017.6119s-.8625.6203-1.2498 1.0076-.7297.812-1.0076 1.2497c-.2778.4378-.4858.8802-.6119 1.3018s-.168.8142-.1232 1.1555c.0448.3412.1754.6244.3844.8333z"/><path d="m4.84044 21.7898c.38731.3873.81198.7297 1.24977 1.0076s.88011.4858 1.30172.6119c.42161.1262.81425.168 1.1555.1232s.62442-.1754.83335-.3843c.20894-.209.33954-.4921.38435-.8334.0448-.3412.00295-.7339-.12319-1.1555s-.33408-.8639-.61196-1.3017-.62025-.8625-1.00756-1.2498c-.78222-.7822-1.70001-1.3647-2.55149-1.6195-.85148-.2547-1.56689-.1608-1.98884.2612-.42196.4219-.5159 1.1373-.26116 1.9888s.83729 1.7693 1.61951 2.5515z"/></g></svg>