<svg enable-background="new 0 0 100 100" viewBox="0 0 100 100" xmlns="http://www.w3.org/2000/svg"><path d="m66.8 56.6c-1.3-2.2-3.1-4-5.5-5.4-2.4-1.5-5.3-2.8-8.8-3.9-2.9-1-5.2-2-6.9-3s-2.8-2.2-3.5-3.5-1-2.8-1-4.5c0-1.8.3-3.5 1-4.8.7-1.4 1.8-2.5 3.2-3.3 1.5-.8 3.3-1.2 5.6-1.2 1.6 0 3 .3 4.2.9s2.3 1.4 3.1 2.6c.9 1.1 1.5 2.4 1.9 3.9s.6 3.1.6 4.9h7.3c0-3-.4-5.7-1.2-8s-1.9-4.3-3.4-5.9-3.3-2.8-5.4-3.6c-1.3-.5-2.7-.8-4.2-1v-8.9h-6v8.8c-2.3.3-4.4.8-6.2 1.8-2.6 1.3-4.6 3.1-6 5.5s-2.1 5.1-2.1 8.4c0 3.1.7 5.8 2 8s3.2 4.1 5.6 5.6c2.5 1.5 5.4 2.8 8.7 3.8 2.8.9 5 1.9 6.6 3 1.7 1.1 2.8 2.2 3.6 3.5.7 1.3 1.1 2.7 1.1 4.3 0 1.9-.4 3.5-1.3 5-.9 1.4-2.2 2.5-3.8 3.3-1.6.7-3.6 1.1-6 1.1-1.3 0-2.6-.2-4-.5-1.3-.4-2.5-1-3.6-1.8-1.1-.9-2-2.1-2.6-3.5-.6-1.5-1-3.4-1-5.6h-7.4c0 3.4.5 6.2 1.6 8.5s2.5 4.1 4.3 5.6c1.8 1.4 3.8 2.4 6 3 1.3.4 2.7.6 4 .8v7.6h6v-7.7c2.4-.3 4.6-.8 6.6-1.7 2.8-1.2 5-3 6.5-5.4s2.3-5.3 2.3-8.7c-.2-3.3-.8-5.9-1.9-8z"/></svg>