<svg viewBox="0 0 48 48" xmlns="http://www.w3.org/2000/svg"><path d="m39 38v-13c0-8.284-6.716-15-15-15s-15 6.716-15 15v13zm-23.426-20.07c1.024-1.222 2.331-2.225 3.776-2.899 1.447-.674 3.055-1.031 4.649-1.031.553 0 1 .448 1 1s-.447 1-1 1c-1.305 0-2.62.292-3.804.843-1.183.552-2.252 1.372-3.091 2.372-.197.236-.48.357-.767.357-.227 0-.454-.077-.642-.234-.423-.355-.479-.986-.123-1.409zm-2.312 4.684c.033-.151.071-.308.114-.464.144-.534.691-.847 1.227-.704.533.145.848.694.703 1.227-.033.125-.063.251-.092.377-.029.131-.055.255-.075.381-.083.488-.507.833-.985.833-.056 0-.112-.004-.169-.014-.544-.093-.91-.609-.818-1.153.028-.162.06-.322.096-.482z"/><rect height="7" rx="2" width="40" x="4" y="40"/><rect height="2" rx="1" width="6" y="24"/><rect height="2" rx="1" width="6" x="42" y="24"/><rect height="2" rx="1" transform="matrix(.70710678 -.70710678 .70710678 .70710678 4.201 30.444)" width="6" x="35.849" y="9.151"/><rect height="6" rx="1" transform="matrix(.70710678 -.70710678 .70710678 .70710678 -4.497 9.444)" width="2" x="8.151" y="7.151"/><rect height="6" rx="1" width="2" x="23" y="1"/></svg>