<svg fill="none" height="24" viewBox="0 0 25 24" width="25" xmlns="http://www.w3.org/2000/svg" xmlns:xlink="http://www.w3.org/1999/xlink"><clipPath id="a"><path d="m.405518 0h24v24h-24z"/></clipPath><g clip-path="url(#a)" stroke="#000" stroke-linecap="round" stroke-linejoin="round" stroke-width="1.5"><path d="m21.0566 23.25c-.4613-1.3133-1.3184-2.4513-2.4533-3.2572-1.1349-.806-2.4918-1.2402-3.8837-1.2428h-.006c-1.3919.0027-2.7486.4369-3.8833 1.2429-1.13478.8059-1.99169 1.9439-2.45274 3.2571"/><path d="m11.1595 11.031c.9676 1.0025 2.2175 1.6864 3.5834 1.9608s2.783.1263 4.0626-.4248"/><path d="m10.5885 13.125c0 1.094.4346 2.1432 1.2082 2.9168s1.8228 1.2082 2.9168 1.2082 2.1432-.4346 2.9168-1.2082 1.2082-1.8228 1.2082-2.9168-.4346-2.1432-1.2082-2.9168-1.8228-1.2082-2.9168-1.2082-2.1432.4346-2.9168 1.2082-1.2082 1.8228-1.2082 2.9168z"/><path d="m2.38049 15.75c0 .7956.31607 1.5587.87868 2.1213s1.32567.8787 2.12132.8787 1.55871-.3161 2.12132-.8787.87868-1.3257.87868-2.1213-.31607-1.5587-.87868-2.1213-1.32567-.8787-2.12132-.8787-1.55871.3161-2.12132.8787-.87868 1.3257-.87868 2.1213z"/><path d="m6.26952 20.338c-1.06031-.2133-2.162-.0361-3.10188.4991-.93987.5352-1.65451 1.3922-2.01212 2.4129"/><path d="m14.7166 18.75v4.5"/><path d="m23.6555 23.25v-22.5h-12.75l3 3-3 3h12.75"/></g></svg>