<svg viewBox="0 0 48 48" xmlns="http://www.w3.org/2000/svg"><path d="m44.911 34.12-3.08 8.45c-.28.78-1.14 1.18-1.92.9l-.94-.34c-.78-.28-1.18-1.15-.9-1.92l.34-.94-3.35-1.22 1.59-1.59c1.25-1.24 2.24-2.66 2.96-4.21l1.2.44.34-.94c.28-.78 1.14-1.18 1.92-.9l.94.34c.78.29 1.18 1.15.9 1.93z"/><path d="m9.929 41.21c.28.77-.12 1.64-.9 1.92l-.94.34c-.78.28-1.64-.12-1.92-.9l-3.08-8.45c-.28-.78.12-1.64.9-1.93l.94-.34c.78-.28 1.64.12 1.92.9l.34.94 1.2-.44c.72 1.55 1.71 2.97 2.96 4.21l1.59 1.59-3.35 1.22z"/><path d="m36.887 29.296c-.258.022-.519.034-.783.034-2.303 0-4.804-.847-6.836-2.338-2.493-1.83-3.998-4.347-4.238-7.086-.216-2.468.585-6.71 8.369-7.391 2.425-.213 4.242.034 5.602.548v-.063c0-7.18-5.82-13-13-13h-4c-7.18 0-13 5.82-13 13v.063c1.36-.514 3.176-.761 5.602-.549 7.784.681 8.584 4.923 8.369 7.391-.24 2.74-1.745 5.257-4.238 7.087-2.032 1.492-4.533 2.338-6.836 2.338-.264 0-.525-.011-.783-.034-.733-.064-1.381-.242-1.966-.498.394 2.728 1.643 5.278 3.616 7.25.664.664 1.364 1.364 2.054 2.054 1.064-4.084 4.766-7.103 9.183-7.103s8.119 3.019 9.183 7.103l2.054-2.054c1.973-1.973 3.221-4.522 3.616-7.25-.585.256-1.232.434-1.966.498z"/><path d="m40.931 18.514c-.237-2.709-2.203-4.077-5.847-4.077-.475 0-.979.023-1.511.07-4.614.404-6.818 2.162-6.55 5.225.189 2.158 1.407 4.164 3.429 5.648 1.885 1.383 4.23 2.101 6.261 1.925 4.711-.413 4.341-7.395 4.219-8.791zm-4.48 5.801c-.119.011-.24.016-.361.016-2.614 0-5.839-2.124-6.079-4.862-.042-.486-.142-1.627 3.823-1.974.438-.039.855-.058 1.241-.058 2.75 0 2.818.773 2.867 1.338.195 2.229-.139 5.422-1.491 5.54z"/><path d="m14.428 14.506c-4.616-.401-7.09.945-7.358 4.008-.122 1.395-.491 8.377 4.219 8.79 2.033.173 4.376-.542 6.261-1.925 2.022-1.484 3.24-3.491 3.429-5.649.268-3.062-1.937-4.82-6.55-5.224zm3.561 4.964c-.239 2.737-3.464 4.861-6.078 4.861-.122 0-.243-.005-.362-.016-1.353-.118-1.686-3.311-1.491-5.54.049-.564.117-1.338 2.867-1.338.385 0 .803.019 1.241.058 3.965.347 3.866 1.488 3.823 1.975z"/><path d="m24 33c-4.142 0-7.5 3.358-7.5 7.5s3.358 7.5 7.5 7.5 7.5-3.358 7.5-7.5-3.358-7.5-7.5-7.5zm0 6.5c.552 0 1 .448 1 1s-.448 1-1 1-1-.448-1-1 .448-1 1-1zm-3.446 1.392c-.058 0-.116-.005-.174-.015-.544-.096-.907-.614-.812-1.158.091-.519.271-1.013.534-1.469.264-.456.602-.859 1.005-1.197.422-.354 1.054-.299 1.409.124s.3 1.054-.124 1.409c-.224.188-.412.412-.558.665s-.246.527-.297.815c-.085.485-.507.827-.984.827zm4.985 3.837c-.495.18-1.012.271-1.539.271s-1.044-.091-1.539-.271c-.519-.189-.787-.763-.598-1.282s.764-.787 1.282-.598c.55.2 1.161.2 1.711 0 .518-.189 1.092.079 1.282.598.188.519-.079 1.093-.598 1.282zm2.081-3.852c-.059.01-.117.015-.174.015-.477 0-.898-.341-.984-.827-.051-.288-.15-.562-.297-.815-.146-.253-.334-.477-.558-.665-.423-.355-.479-.986-.124-1.409.355-.424.987-.478 1.409-.124.403.338.741.741 1.005 1.197.263.456.443.95.534 1.469.096.544-.268 1.062-.812 1.158z"/></svg>