<svg fill="none" height="25" viewBox="0 0 24 25" width="24" xmlns="http://www.w3.org/2000/svg" xmlns:xlink="http://www.w3.org/1999/xlink"><clipPath id="a"><path d="m0 .75h24v24h-24z"/></clipPath><g clip-path="url(#a)" stroke="#000" stroke-linecap="round" stroke-linejoin="round" stroke-width="1.5"><path d="m15 19.5h-3.75v3.75"/><path d="m22.667 20.233c-.3972 1.1607-1.1664 2.158-2.1882 2.8369-1.0218.679-2.2391 1.0017-3.4631.9182s-2.3862-.5687-3.3063-1.3802c-.92-.8115-1.5466-1.904-1.7824-3.1079"/><path d="m19.5 16.5h3.75v-3.75"/><path d="m11.833 15.767c.3972-1.1607 1.1664-2.158 2.1882-2.8369 1.0218-.679 2.2391-1.0017 3.4631-.9182s2.3862.5687 3.3063 1.3802 1.5466 1.904 1.7824 3.1079"/><path d="m3 12.75v-9.75c0-.39782.15804-.77936.43934-1.06066s.66284-.43934 1.06066-.43934h15c.3978 0 .7794.15804 1.0607.43934s.4393.66284.4393 1.06066v6"/><path d="m9.75 12.75h-9c0 .9946.39509 1.9484 1.09835 2.6517.70326.7032 1.65709 1.0983 2.65165 1.0983h3.75"/></g></svg>