<svg fill="none" height="24" viewBox="0 0 25 24" width="25" xmlns="http://www.w3.org/2000/svg" xmlns:xlink="http://www.w3.org/1999/xlink"><clipPath id="a"><path d="m.405518 0h24v24h-24z"/></clipPath><g clip-path="url(#a)" stroke="#000" stroke-linecap="round" stroke-linejoin="round" stroke-width="1.5"><path d="m3.53758 12.8.448-1.175-1.046-2.744c-.07511-.19792-.08036-.41556-.01489-.61687.06547-.20132.19773-.37424.37489-.49013l2.458-1.605.767-2.834c.05541-.20438.17905-.38366.3504-.50808s.3801-.18649.5916-.17592l2.93202.149 2.286-1.844999c.165-.133037.3705-.205588.5825-.205588.2119 0 .4175.072551.5825.205588l2.286 1.844999 2.932-.146c.2115-.01057.4202.0515.5916.17592.1713.12442.295.3037.3504.50808l.767 2.834 2.458 1.605c.1773.11576.3096.28868.3751.49004s.0602.41906-.0151.61696l-1.045 2.744 1.045 2.743c.0753.1981.0807.4159.0152.6174-.0654.2016-.1979.3747-.3752.4906l-2.458 1.6-.771 2.835c-.0551.2047-.1786.3843-.35.5089-.1714.1247-.3804.1868-.592.1761l-2.932-.146-2.286 1.841"/><path d="m1.15552 19.769 1.656 2.609"/><path d="m10.3135 8.147 6.294 9.916"/><path d="m16.2766 17.541-13.79603 4.316-.994-1.566 9.15803-11.622z"/><path d="m5.46155 20.924.876 1.346c.14484.2375.33669.4428.56377.6034.22708.1607.48459.2732.75673.3307s.55316.0587.82581.0037.53117-.1652.75969-.3238c.46718-.3362.78815-.8383.89735-1.4034.1091-.5651-.0019-1.1506-.31035-1.6366l-.163-.236"/></g></svg>