<svg enable-background="new 0 0 100 100" viewBox="0 0 100 100" xmlns="http://www.w3.org/2000/svg"><path d="m58.2 74.5v-52.1c2.5.1 4.9.5 7 1.2 2.2.7 4.2 1.4 6 2.3l3.2-6.9c-2.2-1.1-4.7-2-7.5-2.6-2.8-.7-5.7-1.1-8.7-1.2v-3.2h-5.8v3.4c-5.8.6-10.7 2.3-14.7 5.3-4 2.9-7 6.7-9.1 11.5-2.1 4.7-3.1 10.1-3.1 16.1 0 9.7 2.2 17.5 6.7 23.5 4.5 5.9 11.2 9.2 20.2 9.8v6.4h5.8v-6.4c2.8-.1 5.2-.3 7.3-.7s4.2-1 6.3-1.8v-7.1c-2.2.7-4.4 1.2-6.7 1.7-2.1.5-4.5.7-6.9.8zm-5.8-.3c-6.1-.8-10.7-3.5-13.8-8.1-3-4.5-4.5-10.4-4.5-17.8 0-7.2 1.6-13.1 4.9-17.7 3.3-4.5 7.7-7.2 13.4-8.2z"/></svg>