<svg fill="none" height="24" viewBox="0 0 25 24" width="25" xmlns="http://www.w3.org/2000/svg" xmlns:xlink="http://www.w3.org/1999/xlink"><clipPath id="a"><path d="m.405518 0h24v24h-24z"/></clipPath><g clip-path="url(#a)" stroke="#000" stroke-linecap="round" stroke-linejoin="round" stroke-width="1.5"><path d="m17.0335 10.5c-.0668.2137-.2021.3996-.385.5288s-.4032.1946-.627.1862h-8.73198c-.22378.0084-.44412-.057-.62702-.1862-.18289-.1292-.31818-.3151-.38498-.5288l-1.372-6.75 3.634 2.769 3.11598-2.769 3.115 2.769 3.635-2.769z"/><path d="m3.40552 2.25c0 .39782.15803.77936.43934 1.06066.2813.2813.66283.43934 1.06066.43934.39782 0 .77935-.15804 1.06066-.43934.2813-.2813.43934-.66284.43934-1.06066s-.15804-.77936-.43934-1.06066c-.28131-.281305-.66284-.43934-1.06066-.43934-.39783 0-.77936.158035-1.06066.43934-.28131.2813-.43934.66284-.43934 1.06066z"/><path d="m10.1555 2.25c0 .39782.1581.77936.4394 1.06066s.6628.43934 1.0606.43934.7794-.15804 1.0607-.43934.4393-.66284.4393-1.06066-.158-.77936-.4393-1.06066c-.2813-.281305-.6629-.43934-1.0607-.43934s-.7793.158035-1.0606.43934c-.2813.2813-.4394.66284-.4394 1.06066z"/><path d="m16.9055 2.25c0 .39782.1581.77936.4394 1.06066s.6628.43934 1.0606.43934.7794-.15804 1.0607-.43934.4393-.66284.4393-1.06066-.158-.77936-.4393-1.06066c-.2813-.281305-.6629-.43934-1.0607-.43934s-.7793.158035-1.0606.43934c-.2813.2813-.4394.66284-.4394 1.06066z"/><path d="m3.40552 18.75v4.5"/><path d="m5.65552 21h-4.5"/><path d="m22.1555 5.25v3"/><path d="m23.6555 6.75h-3"/><path d="m6.45852 14.045c-.02887.2036-.04657.4085-.053.614.01953 1.4518.60996 2.8375 1.64351 3.8572 1.03355 1.0198 2.42707 1.5915 3.87897 1.5915s2.8455-.5717 3.879-1.5915c1.0336-1.0197 1.624-2.4054 1.6435-3.8572-.0059-.2055-.0236-.4105-.053-.614"/><path d="m15.4965 18.84 4.409 4.41"/></g></svg>