<svg fill="none" height="24" viewBox="0 0 25 24" width="25" xmlns="http://www.w3.org/2000/svg" xmlns:xlink="http://www.w3.org/1999/xlink"><clipPath id="a"><path d="m.405518 0h24v24h-24z"/></clipPath><g style="clip-path:url(#a);stroke:#000;stroke-width:1.5;stroke-miterlimit:10;stroke-linecap:round;stroke-linejoin:round"><path d="m12.4055 14.65v4.5"/><path d="m21.6555 19.15v-1.8c0-.6-.4-1-1-1h-16.49998c-.6 0-1 .4-1 1v1.8"/><path d="m10.9055 9.15001v-7.3c0-.6.4-1.000004 1-1.000004h1c.6 0 1 .400004 1 1.000004v7.2"/><path d="m19.9055 11.15c0 .6-.4 1-1 1h-12.99998c-.6 0-1-.4-1-1v-1c0-.60001.4-1.00001 1-1.00001h12.99998c.6 0 1 .4 1 1.00001z"/><path d="m13.9055 2.85001c2.6.7 4.5 3 4.5 5.8v.5"/><path d="m10.9055 2.85001c-2.59998.7-4.49998 3-4.49998 5.8v.5"/><path d="m3.15552 23.15c1.10457 0 2-.8954 2-2s-.89543-2-2-2-2 .8954-2 2 .89543 2 2 2z"/><path d="m12.4055 23.15c1.1046 0 2-.8954 2-2s-.8954-2-2-2-2 .8954-2 2 .8954 2 2 2z"/><path d="m21.6555 23.15c1.1046 0 2-.8954 2-2s-.8954-2-2-2-2 .8954-2 2 .8954 2 2 2z"/></g></svg>