<svg fill="none" height="25" viewBox="0 0 24 25" width="24" xmlns="http://www.w3.org/2000/svg"><g stroke="#000" stroke-linecap="round" stroke-linejoin="round" stroke-width="1.5"><path d="m6.75 8.25v-3"/><path d="m9.75 8.25v-3"/><path d="m3.75 11.25h-3"/><path d="m3.75 17.25h-3"/><path d="m3.75 14.25h-3"/><path d="m9.75 23.25v-3"/><path d="m18.75 17.25h-3"/><path d="m6.75 23.25v-3"/><path d="m12.75 23.25v-3"/><path d="m15.75 14.25v4.5c0 .3978-.158.7794-.4393 1.0607s-.6629.4393-1.0607.4393h-9c-.39782 0-.77936-.158-1.06066-.4393s-.43934-.6629-.43934-1.0607v-9c0-.39782.15804-.77936.43934-1.06066s.66284-.43934 1.06066-.43934h6"/><path d="m6.75 11.25h6v6h-6z"/><path d="m17.25 2.25c-.5967 0-1.169.23705-1.591.65901-.4219.42196-.659.99425-.659 1.59099v2.25"/><path d="m15 6.75c0 .39782.158.77936.4393 1.06066s.6629.43934 1.0607.43934.7794-.15804 1.0607-.43934.4393-.66284.4393-1.06066-.158-.77936-.4393-1.06066-.6629-.43934-1.0607-.43934-.7794.15804-1.0607.43934-.4393.66284-.4393 1.06066z"/><path d="m23.25 6h-3v-.75c0-.79565.3161-1.55871.8787-2.12132s1.3257-.87868 2.1213-.87868v6"/></g></svg>